<svg width="802" height="535" viewBox="0 0 802 535" fill="none" xmlns="http://www.w3.org/2000/svg">
<g clip-path="url(#clip0_20_10261)">
<g filter="url(#filter0_d_20_10261)">
<g clip-path="url(#clip1_20_10261)">
<path vector-effect="non-scaling-stroke" d="M342.09 133.99V154.732C342.09 174.09 326.394 189.773 307.049 189.773H191.034C178.404 189.773 168.162 200.015 168.162 212.645C168.162 227.689 155.966 239.898 140.908 239.898C126.949 239.898 115.622 251.226 115.622 265.185V450.59" stroke="white" stroke-width="1.33474"/>
<path vector-effect="non-scaling-stroke" d="M755.646 97.5391V156.469" stroke="white" stroke-width="1.33474"/>
<path vector-effect="non-scaling-stroke" d="M785.111 127.002H726.181" stroke="white" stroke-width="1.33474"/>
<path vector-effect="non-scaling-stroke" d="M767.353 99.0041C771.884 105.475 774.801 115.609 774.801 127.004C774.801 138.399 771.898 148.465 767.394 154.936M743.898 154.936C739.394 148.465 736.491 138.359 736.491 127.004C736.491 115.649 739.421 105.421 743.979 98.9634" stroke="white" stroke-width="1.33474"/>
<path vector-effect="non-scaling-stroke" d="M779.223 109.313H732.082" stroke="white" stroke-width="1.33474"/>
<path vector-effect="non-scaling-stroke" d="M779.223 144.679H732.082" stroke="white" stroke-width="1.33474"/>
<path vector-effect="non-scaling-stroke" d="M791.012 127.004C791.012 146.539 775.18 162.37 755.646 162.37C736.111 162.37 720.279 146.539 720.279 127.004C720.279 107.469 736.111 91.6377 755.646 91.6377C775.18 91.6377 791.012 107.469 791.012 127.004Z" stroke="white" stroke-width="1.33474"/>
<path vector-effect="non-scaling-stroke" d="M761.547 81.7481C759.594 81.4768 757.627 81.3411 755.66 81.314C753.693 81.3275 751.725 81.4768 749.772 81.7481" fill="#020202"/>
<path vector-effect="non-scaling-stroke" d="M761.547 81.7481C759.594 81.4768 757.627 81.3411 755.66 81.314C753.693 81.3275 751.725 81.4768 749.772 81.7481" stroke="white" stroke-width="1.33474"/>
<path vector-effect="non-scaling-stroke" d="M761.547 172.245C759.594 172.516 757.627 172.652 755.66 172.679C753.693 172.666 751.725 172.516 749.772 172.245" fill="#020202"/>
<path vector-effect="non-scaling-stroke" d="M761.547 172.245C759.594 172.516 757.627 172.652 755.66 172.679C753.693 172.666 751.725 172.516 749.772 172.245" stroke="white" stroke-width="1.33474"/>
<path vector-effect="non-scaling-stroke" d="M783.374 90.7557C781.814 89.5484 780.186 88.436 778.49 87.4321C776.767 86.4689 774.99 85.6007 773.172 84.8682" fill="#020202"/>
<path vector-effect="non-scaling-stroke" d="M783.374 90.7557C781.814 89.5484 780.186 88.436 778.49 87.4321C776.767 86.4689 774.99 85.6007 773.172 84.8682" stroke="white" stroke-width="1.33474"/>
<path vector-effect="non-scaling-stroke" d="M738.132 169.126C736.301 168.38 734.524 167.525 732.814 166.548C731.119 165.544 729.491 164.432 727.931 163.225" fill="#020202"/>
<path vector-effect="non-scaling-stroke" d="M738.132 169.126C736.301 168.38 734.524 167.525 732.814 166.548C731.119 165.544 729.491 164.432 727.931 163.225" stroke="white" stroke-width="1.33474"/>
<path vector-effect="non-scaling-stroke" d="M797.781 109.476C797.035 107.645 796.18 105.868 795.204 104.159C794.2 102.463 793.087 100.835 791.88 99.2749" fill="#020202"/>
<path vector-effect="non-scaling-stroke" d="M797.781 109.476C797.035 107.645 796.18 105.868 795.204 104.159C794.2 102.463 793.087 100.835 791.88 99.2749" stroke="white" stroke-width="1.33474"/>
<path vector-effect="non-scaling-stroke" d="M719.412 154.733C718.204 153.173 717.092 151.545 716.088 149.849C715.125 148.126 714.256 146.349 713.524 144.531" fill="#020202"/>
<path vector-effect="non-scaling-stroke" d="M719.412 154.733C718.204 153.173 717.092 151.545 716.088 149.849C715.125 148.126 714.256 146.349 713.524 144.531" stroke="white" stroke-width="1.33474"/>
<path vector-effect="non-scaling-stroke" d="M800.901 132.892C801.173 130.939 801.308 128.972 801.335 127.005C801.322 125.038 801.173 123.071 800.901 121.117" fill="#020202"/>
<path vector-effect="non-scaling-stroke" d="M800.901 132.892C801.173 130.939 801.308 128.972 801.335 127.005C801.322 125.038 801.173 123.071 800.901 121.117" stroke="white" stroke-width="1.33474"/>
<path vector-effect="non-scaling-stroke" d="M710.403 132.892C710.132 130.939 709.996 128.972 709.969 127.005C709.983 125.038 710.132 123.071 710.403 121.117" fill="#020202"/>
<path vector-effect="non-scaling-stroke" d="M710.403 132.892C710.132 130.939 709.996 128.972 709.969 127.005C709.983 125.038 710.132 123.071 710.403 121.117" stroke="white" stroke-width="1.33474"/>
<path vector-effect="non-scaling-stroke" d="M791.894 154.719C793.101 153.159 794.213 151.531 795.217 149.835C796.18 148.113 797.049 146.335 797.781 144.518" fill="#020202"/>
<path vector-effect="non-scaling-stroke" d="M791.894 154.719C793.101 153.159 794.213 151.531 795.217 149.835C796.18 148.113 797.049 146.335 797.781 144.518" stroke="white" stroke-width="1.33474"/>
<path vector-effect="non-scaling-stroke" d="M713.524 109.477C714.27 107.646 715.125 105.869 716.101 104.16C717.105 102.464 718.218 100.836 719.425 99.2759" fill="#020202"/>
<path vector-effect="non-scaling-stroke" d="M713.524 109.477C714.27 107.646 715.125 105.869 716.101 104.16C717.105 102.464 718.218 100.836 719.425 99.2759" stroke="white" stroke-width="1.33474"/>
<path vector-effect="non-scaling-stroke" d="M773.172 169.126C775.004 168.38 776.781 167.525 778.49 166.548C780.186 165.544 781.827 164.432 783.374 163.225" fill="#020202"/>
<path vector-effect="non-scaling-stroke" d="M773.172 169.126C775.004 168.38 776.781 167.525 778.49 166.548C780.186 165.544 781.827 164.432 783.374 163.225" stroke="white" stroke-width="1.33474"/>
<path vector-effect="non-scaling-stroke" d="M727.931 90.7557C729.491 89.5484 731.119 88.436 732.814 87.4321C734.537 86.4689 736.314 85.6007 738.132 84.8682" fill="#020202"/>
<path vector-effect="non-scaling-stroke" d="M727.931 90.7557C729.491 89.5484 731.119 88.436 732.814 87.4321C734.537 86.4689 736.314 85.6007 738.132 84.8682" stroke="white" stroke-width="1.33474"/>
<path vector-effect="non-scaling-stroke" d="M117.982 291.042L118.565 302.261C113.451 304.377 108.798 307.47 104.864 311.35L94.7573 306.48L87.1469 317.821L95.4763 325.323C93.3465 330.437 92.2341 335.918 92.207 341.453L81.6392 345.143L84.2709 358.546L95.4899 357.962C97.6062 363.077 100.699 367.73 104.579 371.664L99.7089 381.77L111.05 389.381L118.552 381.051C123.666 383.181 129.147 384.294 134.682 384.321L138.372 394.889L151.775 392.257L151.191 381.038C156.306 378.922 160.959 375.829 164.893 371.949L174.999 376.819L182.61 365.478L174.28 357.976C176.41 352.862 177.523 347.381 177.55 341.846L188.118 338.156L185.486 324.753L174.267 325.336C172.151 320.222 169.058 315.569 165.178 311.635L170.048 301.528L158.707 293.918L151.205 302.247C146.091 300.117 140.61 299.005 135.075 298.978L131.385 288.41L117.982 291.042Z" fill="#020202" stroke="white" stroke-width="1.33474"/>
<path vector-effect="non-scaling-stroke" d="M165.028 335.715C168.297 352.36 157.458 368.517 140.813 371.787C124.167 375.056 108.01 364.217 104.741 347.571C101.472 330.926 112.311 314.769 128.956 311.5C145.601 308.23 161.758 319.07 165.028 335.715Z" fill="#404040" stroke="white" stroke-width="1.33474" stroke-miterlimit="10"/>
<path vector-effect="non-scaling-stroke" d="M122.866 333.571L114.794 345.591L126.813 353.662" fill="#404040"/>
<path vector-effect="non-scaling-stroke" d="M122.866 333.571L114.794 345.591L126.813 353.662" stroke="white" stroke-width="1.33474" stroke-miterlimit="10"/>
<path vector-effect="non-scaling-stroke" d="M142.957 329.624L154.976 337.695L146.905 349.715" fill="#404040"/>
<path vector-effect="non-scaling-stroke" d="M142.957 329.624L154.976 337.695L146.905 349.715" stroke="white" stroke-width="1.33474" stroke-miterlimit="10"/>
<path vector-effect="non-scaling-stroke" d="M135.264 325.919L134.491 357.379Z" fill="#404040"/>
<path vector-effect="non-scaling-stroke" d="M135.264 325.919L134.491 357.379" stroke="white" stroke-width="1.33474" stroke-miterlimit="10"/>
<path vector-effect="non-scaling-stroke" d="M415.821 150.337C421.993 131.697 439.534 118.24 460.222 118.24C463.139 118.24 466.001 118.525 468.768 119.04C473.191 113.75 479.065 109.707 485.78 107.564C489.863 84.7051 509.805 67.3408 533.817 67.3408C557.258 67.3408 576.834 83.8776 581.541 105.936C582.532 105.854 583.536 105.8 584.553 105.8C597.088 105.8 608.158 112.081 614.791 121.659C620.747 116.422 628.533 113.248 637.08 113.248C655.733 113.248 670.859 128.387 670.859 147.067C670.859 148.18 670.805 149.265 670.696 150.35H415.821V150.337Z" fill="#404040" stroke="white" stroke-width="1.33474" stroke-miterlimit="10"/>
<path vector-effect="non-scaling-stroke" d="M483.677 133.99C473.774 104.051 445.598 82.4402 412.361 82.4402C407.667 82.4402 403.096 82.8878 398.646 83.7154C391.551 75.2096 382.109 68.7387 371.324 65.2794C364.772 28.5566 332.73 0.678711 294.175 0.678711C255.621 0.678711 225.098 27.2407 217.528 62.6611C215.941 62.5255 214.327 62.4441 212.699 62.4441C192.567 62.4441 174.796 72.5235 164.133 87.9208C154.583 79.5099 142.062 74.4092 128.333 74.4092C98.3659 74.4092 74.083 98.7192 74.083 128.713C74.083 130.49 74.178 132.254 74.3408 133.99H483.69H483.677Z" fill="#020202" stroke="white" stroke-width="1.33474"/>
<path vector-effect="non-scaling-stroke" d="M258.769 430.974C314.511 430.974 359.699 385.786 359.699 330.044C359.699 274.302 314.511 229.114 258.769 229.114C203.027 229.114 157.839 274.302 157.839 330.044C157.839 385.786 203.027 430.974 258.769 430.974Z" fill="#020202" stroke="white" stroke-width="1.33474"/>
<path vector-effect="non-scaling-stroke" d="M408.36 245.163C404.344 240.211 401.088 235.978 399.596 232.872C391.959 216.973 395.242 203.054 386.668 199.242C378.244 195.484 371.271 200.843 366.197 204.37C361.137 207.897 352.306 217.19 356.402 228.721C356.525 229.06 356.647 229.413 356.755 229.752C356.24 231.841 355.616 234.744 355.304 237.498C355.114 239.207 357.026 240.32 358.383 239.302L358.912 238.909C360.255 246.533 360.933 252.936 366.211 254.971C373.753 257.874 383.209 244.43 383.209 244.43L388.879 257.562L408.36 245.19V245.163Z" fill="#202020" stroke="white" stroke-width="1.33474" stroke-miterlimit="10"/>
<path vector-effect="non-scaling-stroke" d="M312.869 325.432H297.228V350.637H312.869V325.432Z" fill="#020202" stroke="white" stroke-width="1.33474" stroke-miterlimit="10"/>
<path vector-effect="non-scaling-stroke" d="M413.461 288.614L396.91 314.565" stroke="white" stroke-width="1.33474" stroke-miterlimit="10"/>
<path vector-effect="non-scaling-stroke" d="M365.749 236.479C365.749 236.479 365.709 241.947 359.686 243.33" stroke="white" stroke-width="1.33474" stroke-miterlimit="10"/>
<path vector-effect="non-scaling-stroke" d="M357.257 217.314L357.384 216.703C357.257 217.314 357.257 217.314 357.257 217.314L357.258 217.314L357.26 217.315L357.265 217.316L357.282 217.319C357.296 217.322 357.315 217.326 357.341 217.33C357.391 217.339 357.464 217.352 357.558 217.367C357.746 217.396 358.018 217.434 358.365 217.469C359.058 217.54 360.053 217.599 361.273 217.56C363.599 217.485 366.75 217.051 370.198 215.643C371.087 216.921 373.231 219.777 376.337 222.471C379.898 225.558 384.797 228.493 390.574 228.493C392.478 228.493 394.465 228.182 396.517 227.452L396.795 227.36L397.428 227.149L397.217 226.515L397.122 226.23L396.97 225.774H396.954C395.536 221.529 394.76 217.535 394.065 213.943L394.065 213.943L394.059 213.911C393.407 210.545 392.806 207.441 391.755 204.914C390.69 202.352 389.136 200.317 386.546 199.162C378.388 195.522 371.564 200.305 366.857 203.604L366.777 203.66L366.777 203.661L366.1 204.134C366.1 204.134 366.1 204.134 366.099 204.135C364.505 205.244 359.066 209.396 356.551 216.017L356.55 216.019L356.428 216.345L356.163 217.052L356.897 217.228L357.237 217.31L357.247 217.312L357.257 217.314Z" fill="#404040" stroke="white" stroke-width="1.33474" stroke-miterlimit="10"/>
<path vector-effect="non-scaling-stroke" d="M452.557 350.637C452.557 325.12 442.79 299.697 433.795 280.868C427.772 268.238 416.499 255.215 408.346 245.163C408.346 245.163 394.047 245.163 388.865 257.535C388.865 257.535 385.08 260.736 375.625 276.12C366.17 291.49 350.718 317.116 350.718 317.116H317.997C312.205 317.116 307.524 321.878 307.524 327.765V350.637H354.72C366.034 350.637 376.615 344.939 382.964 335.43L396.91 314.552" fill="#404040"/>
<path vector-effect="non-scaling-stroke" d="M452.557 350.637C452.557 325.12 442.79 299.697 433.795 280.868C427.772 268.238 416.499 255.215 408.346 245.163C408.346 245.163 394.047 245.163 388.865 257.535C388.865 257.535 385.08 260.736 375.625 276.12C366.17 291.49 350.718 317.116 350.718 317.116H317.997C312.205 317.116 307.524 321.878 307.524 327.765V350.637H354.72C366.034 350.637 376.615 344.939 382.964 335.43L396.91 314.552" stroke="white" stroke-width="1.33474" stroke-miterlimit="10"/>
<path vector-effect="non-scaling-stroke" d="M452.679 350.148C452.679 324.631 442.912 299.209 433.917 280.379C427.894 267.749 416.621 254.726 408.468 244.674C408.468 244.674 394.17 244.674 388.987 257.046C388.987 257.046 385.203 260.247 375.747 275.631C366.292 291.001 350.84 316.627 350.84 316.627H318.119C312.327 316.627 307.646 321.389 307.646 327.276V350.148H354.842C366.156 350.148 376.737 344.451 383.086 334.941L397.032 314.063" stroke="white" stroke-width="1.33474" stroke-miterlimit="10"/>
<path vector-effect="non-scaling-stroke" d="M264.638 321.965L260.008 326.486C252.869 321.62 249.612 317.993 248.289 315.414C247.62 314.109 247.457 313.093 247.514 312.327C247.572 311.562 247.852 310.997 248.152 310.597C248.344 310.341 248.739 310.302 248.997 310.553L248.999 310.554C250.23 311.745 252.721 314.062 255.722 316.393C258.432 318.497 261.593 320.641 264.638 321.965Z" fill="#202020" stroke="white" stroke-width="1.33474" stroke-miterlimit="10"/>
<path vector-effect="non-scaling-stroke" d="M249.058 333.685L258.742 324.322C258.745 324.347 258.748 324.372 258.75 324.398C258.833 325.24 258.89 326.396 258.789 327.661C258.584 330.215 257.749 333.061 255.359 334.749C253.846 335.817 252.587 336.107 251.589 336.054C250.584 336 249.768 335.593 249.156 335.138C248.682 334.784 248.639 334.088 249.057 333.686L249.058 333.685Z" fill="#202020" stroke="white" stroke-width="1.33474" stroke-miterlimit="10"/>
<path vector-effect="non-scaling-stroke" d="M285.82 350.638C274.858 350.638 257.128 341.332 261.74 336.733C264.63 333.857 276.595 345.646 276.595 345.646L285.806 350.638H285.82Z" fill="#202020" stroke="white" stroke-width="1.33474" stroke-miterlimit="10"/>
<path vector-effect="non-scaling-stroke" d="M285.819 325.431C278.154 325.431 272.402 324.631 265.823 321.728C262.716 320.344 259.094 321.863 257.778 325.051L252.61 337.532C252.176 338.59 252.868 339.797 254.007 339.879C256.069 340.042 259.488 338.386 263.137 328.456L266.895 330.952C266.895 330.952 267.695 350.65 285.819 350.65V325.445V325.431Z" fill="#202020" stroke="white" stroke-width="1.33474" stroke-miterlimit="10"/>
<path vector-effect="non-scaling-stroke" d="M295.288 321.524H287.759C286.688 321.524 285.819 322.393 285.819 323.464V323.491C285.819 324.563 286.688 325.431 287.759 325.431H295.288C296.36 325.431 297.228 324.563 297.228 323.491V323.464C297.228 322.393 296.36 321.524 295.288 321.524Z" fill="#404040" stroke="white" stroke-width="1.33474" stroke-miterlimit="10"/>
<path vector-effect="non-scaling-stroke" d="M291.517 321.524C290.459 321.524 289.591 322.406 289.591 323.478C289.591 324.55 290.459 325.431 291.517 325.431C292.575 325.431 293.444 324.55 293.444 323.478C293.444 322.406 292.575 321.524 291.517 321.524Z" fill="black" stroke="white" stroke-width="1.33474" stroke-miterlimit="10"/>
<path vector-effect="non-scaling-stroke" d="M297.228 325.432H285.819V350.637H297.228V325.432Z" fill="#404040" stroke="white" stroke-width="1.33474" stroke-miterlimit="10"/>
<path vector-effect="non-scaling-stroke" d="M385.297 249.381L389.001 257.059" stroke="white" stroke-width="1.33474" stroke-miterlimit="10"/>
<path vector-effect="non-scaling-stroke" d="M285.819 325.432H297.228V333.829C297.228 336.976 294.678 339.54 291.531 339.54C288.383 339.54 285.833 336.99 285.833 333.829V325.432H285.819Z" fill="#404040" stroke="white" stroke-width="1.33474" stroke-miterlimit="10"/>
<path vector-effect="non-scaling-stroke" d="M208.507 342.782L193.381 294.366L185.635 296.916L203.23 350.65H269.459V342.782H208.521H208.507Z" fill="#A100FF" stroke="white" stroke-width="1.33474"/>
<path vector-effect="non-scaling-stroke" d="M563.702 500.5C646.495 500.5 713.605 433.403 713.605 350.637C713.605 267.872 646.495 200.775 563.702 200.775C480.91 200.775 413.799 267.872 413.799 350.637C413.799 433.403 480.91 500.5 563.702 500.5Z" fill="#020202" stroke="white" stroke-width="1.33474"/>
<path vector-effect="non-scaling-stroke" d="M396.476 315.189L413.691 324.577" stroke="white" stroke-width="1.33474"/>
<path vector-effect="non-scaling-stroke" d="M212.224 202.877V171.445H191.278L233.183 108.594L275.088 171.445H254.143V208.113H233.197L275.102 270.964L317.007 208.113H296.061V176.681" fill="#020202"/>
<path vector-effect="non-scaling-stroke" d="M212.224 202.877V171.445H191.278L233.183 108.594L275.088 171.445H254.143V208.113H233.197L275.102 270.964L317.007 208.113H296.061V176.681" stroke="white" stroke-width="1.33474" stroke-miterlimit="10"/>
<path vector-effect="non-scaling-stroke" d="M513.862 283.188H596.858C600.263 283.188 603.003 285.928 603.003 289.333V347.734C603.003 351.139 600.263 353.879 596.858 353.879H513.862C510.457 353.879 507.716 351.139 507.716 347.734V289.333C507.716 285.928 510.457 283.188 513.862 283.188Z" stroke="white" stroke-width="1.33474"/>
<path vector-effect="non-scaling-stroke" d="M596.858 289.333H595.325" stroke="white" stroke-width="1.33474"/>
<path vector-effect="non-scaling-stroke" d="M589.179 289.333H587.646" stroke="white" stroke-width="1.33474"/>
<path vector-effect="non-scaling-stroke" d="M581.487 289.333H579.954" stroke="white" stroke-width="1.33474"/>
<path vector-effect="non-scaling-stroke" d="M603.002 295.479H507.716" stroke="white" stroke-width="1.33474"/>
<path vector-effect="non-scaling-stroke" d="M681.21 506.821C667.183 461.144 627.299 428.179 580.253 428.179C573.619 428.179 567.121 428.871 560.826 430.119C550.774 417.137 537.412 407.261 522.137 401.984C512.857 345.97 467.507 303.428 412.918 303.428C358.329 303.428 315.108 343.963 304.391 397.995C302.139 397.792 299.86 397.67 297.554 397.67C269.052 397.67 243.901 413.053 228.788 436.536C215.263 423.703 197.533 415.916 178.106 415.916C135.686 415.916 101.296 453.005 101.296 498.776C101.296 501.489 101.418 504.175 101.663 506.821H681.21Z" fill="#020202" stroke="white" stroke-width="1.33474" stroke-miterlimit="10"/>
<path vector-effect="non-scaling-stroke" d="M382.964 350.446L379.952 360.987C376.072 361.937 372.355 363.47 368.937 365.545L359.359 360.227L350.514 369.072L355.846 378.663C353.77 382.082 352.237 385.785 351.288 389.665L340.733 392.677V405.198L351.274 408.21C352.224 412.09 353.757 415.807 355.832 419.225L350.514 428.803L359.359 437.648L368.95 432.316C372.369 434.392 376.072 435.925 379.952 436.874L382.964 447.429H395.485L398.497 436.888C402.377 435.938 406.094 434.405 409.512 432.33L419.09 437.648L427.935 428.803L422.603 419.212C424.679 415.793 426.212 412.09 427.162 408.21L437.716 405.198V392.677L427.175 389.665C426.225 385.785 424.693 382.068 422.617 378.65L427.935 369.072L419.09 360.227L409.499 365.559C406.08 363.483 402.377 361.95 398.497 361.001L395.485 350.446H382.964Z" stroke="white" stroke-width="1.33474" stroke-linecap="round" stroke-linejoin="round"/>
<path vector-effect="non-scaling-stroke" d="M370.443 394.251L382.964 406.772L408.007 381.729L415.834 389.557L382.978 422.414L362.629 402.065L370.456 394.237L370.443 394.251Z" fill="#A2A2A0" stroke="white" stroke-width="1.33474"/>
<path vector-effect="non-scaling-stroke" d="M353.052 228.164L377.837 216.945" stroke="white" stroke-width="1.33474" stroke-miterlimit="10"/>
<path vector-effect="non-scaling-stroke" d="M350.772 222.358L355.507 234.296" stroke="white" stroke-width="1.33474" stroke-miterlimit="10"/>
<path vector-effect="non-scaling-stroke" d="M389.218 201.276C395.571 201.276 400.722 196.126 400.722 189.772C400.722 183.419 395.571 178.269 389.218 178.269C382.864 178.269 377.714 183.419 377.714 189.772C377.714 196.126 382.864 201.276 389.218 201.276Z" fill="#404040" stroke="white" stroke-width="1.33474" stroke-miterlimit="10"/>
<path vector-effect="non-scaling-stroke" d="M530.954 302.831V345.36H579.778" stroke="white" stroke-width="1.33474" stroke-linecap="round" stroke-linejoin="round"/>
<path vector-effect="non-scaling-stroke" d="M536.462 342.212V337.491L547.491 327.249V342.212" stroke="white" stroke-width="1.33474" stroke-linecap="round" stroke-linejoin="round"/>
<path vector-effect="non-scaling-stroke" d="M550.638 342.212V327.249L561.667 331.183V342.212" stroke="white" stroke-width="1.33474" stroke-linecap="round" stroke-linejoin="round"/>
<path vector-effect="non-scaling-stroke" d="M564.814 342.212V331.183L575.843 317.006V342.212" stroke="white" stroke-width="1.33474" stroke-linecap="round" stroke-linejoin="round"/>
<path vector-effect="non-scaling-stroke" d="M535.675 332.756L548.277 321.727L562.454 327.234L577.417 309.124" stroke="white" stroke-width="1.33474" stroke-linecap="round" stroke-linejoin="round"/>
<path vector-effect="non-scaling-stroke" d="M573.483 309.124H577.418V313.058" stroke="white" stroke-width="1.33474" stroke-linecap="round" stroke-linejoin="round"/>
<path vector-effect="non-scaling-stroke" d="M460.276 403.476L459.856 412.104C455.786 413.325 451.988 415.333 448.678 418.005L441.325 413.501L434.623 421.587L440.416 427.976C438.395 431.72 437.12 435.831 436.672 440.063L428.302 442.071L429.279 452.53L437.906 452.951C439.127 457.021 441.135 460.819 443.808 464.129L439.304 471.482L447.389 478.183L453.778 472.391C457.523 474.412 461.633 475.687 465.866 476.135L467.873 484.505L478.333 483.528L478.753 474.901C482.823 473.68 486.621 471.672 489.931 468.999L497.284 473.503L503.986 465.418L498.193 459.028C500.214 455.284 501.49 451.174 501.937 446.941L510.307 444.934L509.331 434.474L500.703 434.054C499.482 429.984 497.474 426.185 494.802 422.875L499.305 415.523L491.22 408.821L484.831 414.614C481.087 412.593 476.976 411.317 472.744 410.87L470.736 402.5L460.276 403.476Z" fill="#A2A2A0" stroke="white" stroke-width="1.33474"/>
<path vector-effect="non-scaling-stroke" d="M540.247 238.691V159.209H528.906L555.359 121.36L581.813 159.209H570.472V238.691" fill="#020202"/>
<path vector-effect="non-scaling-stroke" d="M540.247 238.691V159.209H528.906L555.359 121.36L581.813 159.209H570.472V238.691" stroke="white" stroke-width="1.33474" stroke-miterlimit="10"/>
<path vector-effect="non-scaling-stroke" d="M555.359 271.779C571.082 271.779 583.834 259.04 583.834 243.318C583.834 227.595 571.082 214.856 555.359 214.856C539.636 214.856 526.884 227.595 526.884 243.318C526.884 259.04 539.636 271.779 555.359 271.779Z" fill="#A100FF" stroke="white" stroke-width="1.33474"/>
<path vector-effect="non-scaling-stroke" d="M555.359 226.32C552.293 228.979 547.613 230.716 542.335 230.838V244.688C542.335 247.958 543.651 251.078 545.998 253.357L555.345 260.33L564.706 253.357C567.052 251.078 568.368 247.944 568.368 244.675V230.838C563.091 230.716 558.411 228.979 555.345 226.32H555.359ZM556.742 242.464V248.609H553.975V242.464C553.514 242.07 553.215 241.487 553.215 240.836C553.215 239.656 554.178 238.692 555.359 238.692C556.539 238.692 557.502 239.656 557.502 240.836C557.502 241.487 557.204 242.07 556.742 242.464Z" fill="#A100FF" stroke="white" stroke-width="1.33474"/>
<path vector-effect="non-scaling-stroke" d="M634.99 375.204H665.975V320.317H625.25V365.478L634.99 375.218V375.204Z" fill="#404040" stroke="white" stroke-width="1.33474" stroke-miterlimit="10"/>
<path vector-effect="non-scaling-stroke" d="M634.99 375.205V365.464H625.25" fill="#E3E3DF"/>
<path vector-effect="non-scaling-stroke" d="M634.99 375.205V365.464H625.25" stroke="white" stroke-width="1.33474" stroke-miterlimit="10"/>
<path vector-effect="non-scaling-stroke" d="M646.508 329.692H615.523V384.579H656.248V339.419L646.508 329.678V329.692Z" fill="#020202" stroke="white" stroke-width="1.33474"/>
<path vector-effect="non-scaling-stroke" d="M646.508 329.692V339.432H656.248" fill="#020202"/>
<path vector-effect="non-scaling-stroke" d="M646.508 329.692V339.432H656.248" stroke="white" stroke-width="1.33474"/>
<path vector-effect="non-scaling-stroke" d="M475.647 437.607C475.647 434.148 472.839 431.354 469.393 431.354C465.947 431.354 463.139 434.162 463.139 437.607C463.139 441.053 465.947 443.861 469.393 443.861C472.839 443.861 475.647 446.669 475.647 450.115C475.647 453.561 472.839 456.369 469.393 456.369C465.947 456.369 463.139 453.561 463.139 450.115" fill="#404040"/>
<path vector-effect="non-scaling-stroke" d="M475.647 437.607C475.647 434.148 472.839 431.354 469.393 431.354C465.947 431.354 463.139 434.162 463.139 437.607C463.139 441.053 465.947 443.861 469.393 443.861C472.839 443.861 475.647 446.669 475.647 450.115C475.647 453.561 472.839 456.369 469.393 456.369C465.947 456.369 463.139 453.561 463.139 450.115" stroke="white" stroke-width="1.33474" stroke-miterlimit="10"/>
<path vector-effect="non-scaling-stroke" d="M469.379 431.353V426.66Z" fill="#404040"/>
<path vector-effect="non-scaling-stroke" d="M469.379 431.353V426.66" stroke="white" stroke-width="1.33474" stroke-miterlimit="10"/>
<path vector-effect="non-scaling-stroke" d="M469.379 461.076V456.382Z" fill="#404040"/>
<path vector-effect="non-scaling-stroke" d="M469.379 461.076V456.382" stroke="white" stroke-width="1.33474" stroke-miterlimit="10"/>
<path vector-effect="non-scaling-stroke" d="M494.422 443.861C494.422 457.685 483.216 468.903 469.379 468.903C455.542 468.903 444.336 457.698 444.336 443.861C444.336 430.024 455.542 418.818 469.379 418.818C483.216 418.818 494.422 430.024 494.422 443.861Z" fill="#404040" stroke="white" stroke-width="1.33474" stroke-miterlimit="10"/>
<path vector-effect="non-scaling-stroke" d="M258.497 437.187H154.013V470.219H258.497V437.187Z" fill="#202020" stroke="white" stroke-width="1.33474" stroke-miterlimit="10"/>
<path vector-effect="non-scaling-stroke" d="M258.497 404.167H154.013V437.199H258.497V404.167Z" fill="#020202" stroke="white" stroke-width="1.33474" stroke-miterlimit="10"/>
<path vector-effect="non-scaling-stroke" d="M258.497 375.489H154.013V408.522H258.497V375.489Z" fill="#202020" stroke="white" stroke-width="1.33474" stroke-miterlimit="10"/>
<path vector-effect="non-scaling-stroke" d="M241.132 395.701C242.801 395.701 244.144 394.046 244.144 391.998C244.144 389.949 242.801 388.294 241.132 388.294C239.464 388.294 238.121 389.949 238.121 391.998C238.121 394.046 239.464 395.701 241.132 395.701Z" fill="#020202" stroke="white" stroke-width="1.33474" stroke-miterlimit="10"/>
<path vector-effect="non-scaling-stroke" d="M241.132 426.551C242.801 426.551 244.144 424.895 244.144 422.847C244.144 420.799 242.801 419.144 241.132 419.144C239.464 419.144 238.121 420.799 238.121 422.847C238.121 424.895 239.464 426.551 241.132 426.551Z" fill="#020202" stroke="white" stroke-width="1.33474" stroke-miterlimit="10"/>
<path vector-effect="non-scaling-stroke" d="M241.132 457.413C242.801 457.413 244.144 455.758 244.144 453.709C244.144 451.661 242.801 450.006 241.132 450.006C239.464 450.006 238.121 451.661 238.121 453.709C238.121 455.758 239.464 457.413 241.132 457.413Z" fill="#020202" stroke="white" stroke-width="1.33474" stroke-miterlimit="10"/>
<path vector-effect="non-scaling-stroke" d="M168.162 391.998H223.823" stroke="white" stroke-width="1.33474" stroke-miterlimit="10"/>
<path vector-effect="non-scaling-stroke" d="M168.162 422.861H223.823" stroke="white" stroke-width="1.33474" stroke-miterlimit="10"/>
<path vector-effect="non-scaling-stroke" d="M168.162 453.723H223.823" stroke="white" stroke-width="1.33474" stroke-miterlimit="10"/>
<path vector-effect="non-scaling-stroke" d="M46.7613 164.039L45.1741 175.163C39.7478 176.248 34.5928 178.378 29.9804 181.444L20.9998 174.715L11.3409 184.374L18.0695 193.354C14.9901 197.967 12.8467 203.122 11.7479 208.562L0.664551 210.149V223.81L11.7886 225.397C12.8738 230.823 15.0037 235.978 18.0695 240.591L11.3409 249.571L20.9998 259.23L29.9804 252.502C34.5928 255.581 39.7478 257.724 45.1877 258.823L46.7749 269.907H60.4357L62.0229 258.783C67.4493 257.697 72.6043 255.567 77.2167 252.502L86.1973 259.23L95.8562 249.571L89.1275 240.591C92.207 235.978 94.3504 230.823 95.4492 225.383L106.533 223.796V210.135L95.4085 208.548C94.3233 203.122 92.1934 197.967 89.1275 193.354L95.8562 184.374L86.1973 174.715L77.2167 181.444C72.6043 178.364 67.4493 176.221 62.0094 175.122L60.4222 164.039H46.7613Z" stroke="white" stroke-width="1.33474"/>
<path vector-effect="non-scaling-stroke" d="M84.3113 216.945C84.3113 233.916 70.5555 247.672 53.5846 247.672C36.6137 247.672 22.8579 233.916 22.8579 216.945C22.8579 199.974 36.6137 186.218 53.5846 186.218C70.5555 186.218 84.3113 199.974 84.3113 216.945Z" stroke="white" stroke-width="1.33474"/>
<path vector-effect="non-scaling-stroke" d="M43.3423 206.704L33.1001 216.946L43.3423 227.188" stroke="white" stroke-width="1.33474"/>
<path vector-effect="non-scaling-stroke" d="M63.8271 206.704L74.0694 216.946L63.8271 227.188" stroke="white" stroke-width="1.33474"/>
<path vector-effect="non-scaling-stroke" d="M57.0033 201.589L50.1797 232.316" stroke="white" stroke-width="1.33474"/>
<path vector-effect="non-scaling-stroke" d="M756.689 172.206V180.345" stroke="white" stroke-width="1.33474"/>
<path vector-effect="non-scaling-stroke" d="M756.69 196.542V301.162C756.69 318.581 746 333.503 730.833 339.744" stroke="white" stroke-width="1.33474"/>
<path vector-effect="non-scaling-stroke" d="M723.087 342.077C720.469 342.592 717.756 342.863 714.988 342.863" stroke="white" stroke-width="1.33474"/>
<path vector-effect="non-scaling-stroke" d="M104.227 476.161C101.459 476.161 98.7596 475.944 96.1143 475.51" stroke="white" stroke-width="1.33474"/>
<path vector-effect="non-scaling-stroke" d="M80.2288 470.125C64.3703 461.578 53.5854 444.811 53.5854 425.52V286.416" stroke="white" stroke-width="1.33474"/>
<path vector-effect="non-scaling-stroke" d="M53.5854 277.992V269.852" stroke="white" stroke-width="1.33474"/>
<path vector-effect="non-scaling-stroke" d="M176.871 271.046C174.049 271.046 171.35 270.829 168.759 270.408" stroke="white" stroke-width="1.33474"/>
<path vector-effect="non-scaling-stroke" d="M153.62 264.888C140.054 256.572 132.525 240.619 132.525 221.653V150.256" stroke="white" stroke-width="1.33474"/>
<path vector-effect="non-scaling-stroke" d="M132.525 142.129V133.99" stroke="white" stroke-width="1.33474"/>
<path vector-effect="non-scaling-stroke" d="M630.121 150.337V157.432C630.121 170.781 640.933 181.593 654.281 181.593H670.777C682.403 181.593 691.832 191.021 691.832 202.647V226.93C691.832 238.909 701.531 248.609 713.51 248.609C724.295 248.609 733.031 257.345 733.031 268.13V463.478C733.031 477.709 721.5 489.24 707.27 489.24H675.77" stroke="white" stroke-width="1.33474"/>
<path vector-effect="non-scaling-stroke" d="M459.896 150.337V241.785" stroke="white" stroke-width="1.33474"/>
<path vector-effect="non-scaling-stroke" d="M371.705 220.951C371.705 220.951 374.594 215.498 378.623 217.492C383.738 220.015 380.685 226.513 378.623 227.666" fill="#202020"/>
<path vector-effect="non-scaling-stroke" d="M371.705 220.951C371.705 220.951 374.594 215.498 378.623 217.492C383.738 220.015 380.685 226.513 378.623 227.666" stroke="white" stroke-width="1.33474" stroke-miterlimit="10"/>
</g>
</g>
</g>
<defs>
<filter id="filter0_d_20_10261" x="-1.02572" y="0" width="804.051" height="509.55" filterUnits="userSpaceOnUse" color-interpolation-filters="sRGB">
<feFlood flood-opacity="0" result="BackgroundImageFix"/>
<feColorMatrix in="SourceAlpha" type="matrix" values="0 0 0 0 0 0 0 0 0 0 0 0 0 0 0 0 0 0 127 0" result="hardAlpha"/>
<feOffset dy="1.02572"/>
<feGaussianBlur stdDeviation="0.512858"/>
<feComposite in2="hardAlpha" operator="out"/>
<feColorMatrix type="matrix" values="0 0 0 0 0 0 0 0 0 0 0 0 0 0 0 0 0 0 0.25 0"/>
<feBlend mode="normal" in2="BackgroundImageFix" result="effect1_dropShadow_20_10261"/>
<feBlend mode="normal" in="SourceGraphic" in2="effect1_dropShadow_20_10261" result="shape"/>
</filter>
<clipPath id="clip0_20_10261">
<rect width="802" height="535" fill="white"/>
</clipPath>
<clipPath id="clip1_20_10261">
<rect width="802" height="507.499" fill="white"/>
</clipPath>
</defs>
</svg>
